<?xml version="1.0" encoding="utf-8"?>
<!-- Generator: Adobe Illustrator 24.1.2, SVG Export Plug-In . SVG Version: 6.00 Build 0)  -->
<svg version="1.1" id="Capa_1" xmlns="http://www.w3.org/2000/svg" xmlns:xlink="http://www.w3.org/1999/xlink" x="0px" y="0px"
	 viewBox="0 0 1366 768" style="enable-background:new 0 0 1366 768;" xml:space="preserve">
<style type="text/css">
	.st0{fill:#F2F2F2;}
</style>
<path class="st0" d="M-0.5-0.5C-0.3,135.7-0.2,271.8,0,408c130.7,38.8,180.8,19.7,202.5-4.5c46.5-52-25.9-141.2,26.5-221.5
	c47.3-72.5,150.6-67.6,155.5-118.5c2.5-25.7-21.8-49.1-41-64C228.8-0.5,114.2-0.5-0.5-0.5z"/>
<path class="st0" d="M427,846h392c58.3-2.7,109.3-39,130-92c16.5-42.4,18.6-108.3-29-150c-40.4-35.3-101.7-40.2-151-11
	c-141.1,82.3-253.2,88.4-329,78c-4.4-0.6-8.7-1.3-13-2c-91.9,2.5-148.4,63.1-144,103C287.1,809.3,346.8,851.3,427,846z"/>
<path class="st0" d="M1228,67c61.4-48.5,160.1-88.4,186-58c26.7,31.3-35,124.7-48,144v333c48.8,87.7,53.2,173.8,17,204
	c-48.2,40.2-177.6-11.4-207-90c-35.4-94.6,91.6-181.5,48-278c-25.2-55.7-79.5-53.3-88-106C1125,148.3,1204.8,85.3,1228,67z"/>
</svg>
