<svg xmlns="http://www.w3.org/2000/svg" viewBox="0 0 89.43 40.06"><defs><style>.cls-1{fill:none;stroke:#fff;stroke-miterlimit:10;stroke-width:0.75px;}.cls-2{fill:#fff;}</style></defs><g id="Capa_2" data-name="Capa 2"><g id="Capa_1-2" data-name="Capa 1"><rect class="cls-1" x="5.35" y="5.49" width="23.76" height="23.48" transform="translate(17.23 -7.14) rotate(45)"/><rect class="cls-1" x="5.36" y="8.27" width="23.76" height="23.48" transform="translate(19.2 -6.33) rotate(45)"/><rect class="cls-1" x="5.35" y="11.09" width="23.76" height="23.48" transform="translate(21.19 -5.5) rotate(45)"/><path class="cls-2" d="M45.33,7.07v7.25a3.07,3.07,0,0,1-.24,1.23,2.67,2.67,0,0,1-.68.94,3,3,0,0,1-1.06.6A4.25,4.25,0,0,1,42,17.3a3.41,3.41,0,0,1-2.38-.77,3.47,3.47,0,0,1-1.07-2l2-.42A2.29,2.29,0,0,0,41,15.15a1.16,1.16,0,0,0,1,.4,1.07,1.07,0,0,0,.86-.35,1.65,1.65,0,0,0,.31-1.09V8.84H39.83V7.07Z"/><path class="cls-2" d="M47.76,17.12v-10h6.42V8.84H49.92v2.31H54v1.77H49.92v2.43h4.26v1.77Z"/><path class="cls-2" d="M59.41,17.3a5.3,5.3,0,0,1-2.2-.42,3.89,3.89,0,0,1-1.52-1.13L57,14.37a3.51,3.51,0,0,0,1.2.9,3.31,3.31,0,0,0,1.33.28,1.77,1.77,0,0,0,1.18-.34,1.27,1.27,0,0,0,.4-1,1,1,0,0,0-.3-.81,2.17,2.17,0,0,0-1-.39l-1.05-.17a3.09,3.09,0,0,1-2-1A3,3,0,0,1,56.1,10a2.75,2.75,0,0,1,.95-2.25,4,4,0,0,1,2.66-.8,5.22,5.22,0,0,1,2,.36,3.59,3.59,0,0,1,1.4,1L61.91,9.59a2.9,2.9,0,0,0-.95-.7,3,3,0,0,0-1.23-.25c-1,0-1.46.4-1.46,1.21a.92.92,0,0,0,.33.78,2.27,2.27,0,0,0,1,.4l1.06.18a3.31,3.31,0,0,1,1.88.92,2.68,2.68,0,0,1,.66,1.9,3.42,3.42,0,0,1-.24,1.3,2.72,2.72,0,0,1-.74,1,3.33,3.33,0,0,1-1.2.68A4.91,4.91,0,0,1,59.41,17.3Z"/><path class="cls-2" d="M66.84,7.07v6.37a8,8,0,0,0,0,.87,1.83,1.83,0,0,0,.17.67,1,1,0,0,0,.41.42,1.56,1.56,0,0,0,.75.15A1.61,1.61,0,0,0,69,15.4a1,1,0,0,0,.41-.42,1.83,1.83,0,0,0,.17-.67c0-.27,0-.56,0-.87V7.07h2.16v6.08A10.57,10.57,0,0,1,71.6,15a3,3,0,0,1-.53,1.3A2.37,2.37,0,0,1,70,17a5.19,5.19,0,0,1-1.78.26A5.25,5.25,0,0,1,66.42,17a2.37,2.37,0,0,1-1.08-.78,3,3,0,0,1-.52-1.3,9.64,9.64,0,0,1-.14-1.81V7.07Zm1.6-.6-1.27-.62L68.6,3.06l1.77.87Z"/><path class="cls-2" d="M76.69,17.3a5.3,5.3,0,0,1-2.2-.42A3.89,3.89,0,0,1,73,15.75l1.26-1.38a3.51,3.51,0,0,0,1.2.9,3.31,3.31,0,0,0,1.33.28,1.77,1.77,0,0,0,1.18-.34,1.27,1.27,0,0,0,.4-1,1,1,0,0,0-.3-.81A2.17,2.17,0,0,0,77,13l-1-.17a3.07,3.07,0,0,1-2-1,3,3,0,0,1-.6-1.88,2.75,2.75,0,0,1,1-2.25A4,4,0,0,1,77,6.9a5.22,5.22,0,0,1,2,.36,3.59,3.59,0,0,1,1.4,1L79.19,9.59a2.9,2.9,0,0,0-1-.7A3,3,0,0,0,77,8.64c-1,0-1.46.4-1.46,1.21a.92.92,0,0,0,.33.78,2.27,2.27,0,0,0,1.05.4l1,.18a3.31,3.31,0,0,1,1.89.92,2.68,2.68,0,0,1,.66,1.9,3.42,3.42,0,0,1-.24,1.3,2.72,2.72,0,0,1-.74,1,3.33,3.33,0,0,1-1.2.68A4.91,4.91,0,0,1,76.69,17.3Z"/><path class="cls-2" d="M44.23,33.12,43.6,30.7H40.85l-.62,2.42H38l2.72-10h3.05l2.73,10Zm-1.94-8h-.12l-1,3.8h2.08Z"/><path class="cls-2" d="M52.81,28.65l.12-2.81H52.8L50.93,31l-1.87-5.17h-.13L49,28.65v4.47H47.17v-10h2.55L51,26.46h.11l1.24-3.39h2.38v10H52.81Z"/><path class="cls-2" d="M61.51,33.12l-.63-2.42H58.13l-.62,2.42H55.32l2.72-10h3.05l2.73,10Zm-1.94-8h-.12l-1,3.8h2.08Z"/><path class="cls-2" d="M64.81,23.07h3.24a3.52,3.52,0,0,1,3,1.3,6.12,6.12,0,0,1,1,3.73,6.14,6.14,0,0,1-1,3.73,3.54,3.54,0,0,1-3,1.29H64.81Zm3.09,8.35a1.63,1.63,0,0,0,1.42-.61,3.15,3.15,0,0,0,.44-1.8V27.18a3.09,3.09,0,0,0-.44-1.79,1.64,1.64,0,0,0-1.42-.62h-1v6.65Z"/><path class="cls-2" d="M76.85,33.3a3.39,3.39,0,0,1-3-1.37,6.67,6.67,0,0,1-1-3.83,6.67,6.67,0,0,1,1-3.83,3.92,3.92,0,0,1,5.95,0,6.59,6.59,0,0,1,1,3.83,6.59,6.59,0,0,1-1,3.83A3.39,3.39,0,0,1,76.85,33.3Zm0-1.75a1.29,1.29,0,0,0,1.27-.68A4.17,4.17,0,0,0,78.47,29V27.22a4.08,4.08,0,0,0-.35-1.89,1.3,1.3,0,0,0-1.27-.69,1.31,1.31,0,0,0-1.28.69,4.22,4.22,0,0,0-.35,1.89V29a4.27,4.27,0,0,0,.35,1.89A1.3,1.3,0,0,0,76.85,31.55Z"/><path class="cls-2" d="M84.39,33.12H82.26v-10h3.89a3.56,3.56,0,0,1,1.31.23,2.49,2.49,0,0,1,1,.64,2.73,2.73,0,0,1,.6,1,4.27,4.27,0,0,1,.2,1.33,3.46,3.46,0,0,1-.46,1.83,2.21,2.21,0,0,1-1.31,1l2,4H87.07l-1.68-3.73h-1Zm1.24-5.4a1.53,1.53,0,0,0,1.06-.28,1.29,1.29,0,0,0,.29-1v-.44a1.29,1.29,0,0,0-.29-.95,1.53,1.53,0,0,0-1.06-.28H84.39v2.9Z"/><path class="cls-2" d="M16.39,15.84v4.82a2.14,2.14,0,0,1-.16.82,1.81,1.81,0,0,1-.45.63,1.9,1.9,0,0,1-.71.4,2.91,2.91,0,0,1-.92.14,2.28,2.28,0,0,1-1.59-.51,2.34,2.34,0,0,1-.71-1.34l1.36-.28a1.54,1.54,0,0,0,.29.7.79.79,0,0,0,.65.27.72.72,0,0,0,.57-.24,1,1,0,0,0,.21-.72V17H12.72V15.84Z"/><path class="cls-2" d="M21.42,22.54,21,20.92H19.16l-.41,1.62H17.29l1.81-6.7h2L23,22.54Zm-1.3-5.31H20l-.65,2.53h1.38Z"/></g></g></svg>